<?xml version="1.0" standalone="no"?>
<!DOCTYPE svg PUBLIC "-//W3C//DTD SVG 20010904//EN"
 "http://www.w3.org/TR/2001/REC-SVG-20010904/DTD/svg10.dtd">
<svg version="1.0" xmlns="http://www.w3.org/2000/svg"
 width="512.000000pt" height="512.000000pt" viewBox="0 0 512.000000 512.000000"
 preserveAspectRatio="xMidYMid meet">
<metadata>
Created by potrace 1.14, written by Peter Selinger 2001-2017
</metadata>
<g transform="translate(0.000000,512.000000) scale(0.100000,-0.100000)"
fill="#000000" stroke="none">
<path d="M1253 4597 c-21 -5 -49 -9 -63 -11 -70 -7 -266 -92 -314 -137 -11
-11 -23 -19 -28 -19 -8 0 -148 -136 -148 -145 0 -3 -11 -18 -25 -33 -14 -15
-25 -32 -25 -39 0 -6 -3 -13 -8 -15 -9 -4 -67 -122 -80 -165 -6 -17 -8 -34 -5
-37 4 -3 2 -6 -4 -6 -10 0 -15 -22 -30 -125 -9 -56 -8 -2560 0 -2615 4 -25 9
-55 12 -68 3 -12 7 -32 10 -45 13 -60 96 -235 119 -249 6 -4 7 -8 3 -8 -27 0
214 -230 242 -230 5 0 11 -3 13 -7 3 -9 93 -53 153 -77 52 -20 108 -34 170
-42 65 -9 2565 -9 2625 -1 46 7 81 14 90 17 3 1 10 3 15 5 6 1 12 3 15 4 3 1
15 4 26 6 55 11 242 112 252 137 2 4 9 8 15 8 24 0 194 195 195 224 0 5 4 12
9 15 10 6 50 90 71 146 17 45 32 110 39 163 8 65 8 2552 -1 2629 -3 33 -13 81
-22 105 -8 23 -17 50 -19 59 -7 34 -59 133 -103 198 -69 102 -215 235 -280
255 -12 4 -29 14 -37 23 -9 8 -21 16 -28 17 -34 7 -73 20 -82 26 -9 6 -51 20
-80 25 -5 1 -12 3 -15 4 -20 10 -222 12 -1357 14 -705 1 -1299 -2 -1320 -6z"/>
</g>
</svg>
