<?xml version="1.0" encoding="UTF-8"?>
<svg xmlns="http://www.w3.org/2000/svg" xmlns:xlink="http://www.w3.org/1999/xlink" width="60px" height="47px" viewBox="0 0 60 47" version="1.1">
<defs>
<clipPath id="clip1">
  <path d="M 16.859375 17.234375 L 18.601562 17.234375 L 18.601562 30.734375 L 16.859375 30.734375 Z M 16.859375 17.234375 "/>
</clipPath>
<clipPath id="clip2">
  <path d="M 26.90625 10 L 43.191406 10 L 43.191406 36 L 26.90625 36 Z M 26.90625 10 "/>
</clipPath>
<clipPath id="clip3">
  <path d="M 18 8.933594 L 37.125 8.933594 L 37.125 38.007812 L 18 38.007812 Z M 18 8.933594 "/>
</clipPath>
</defs>
<g id="surface1">
<g clip-path="url(#clip1)" clip-rule="nonzero">
<path style=" stroke:none;fill-rule:nonzero;fill:rgb(76.078431%,56.078431%,16.862745%);fill-opacity:1;" d="M 18.445312 17.792969 C 17.4375 19.6875 16.859375 21.863281 16.859375 24.171875 C 16.859375 26.480469 17.4375 28.644531 18.445312 30.550781 Z M 18.445312 17.792969 "/>
</g>
<g clip-path="url(#clip2)" clip-rule="nonzero">
<path style=" stroke:none;fill-rule:nonzero;fill:rgb(76.078431%,56.078431%,16.862745%);fill-opacity:1;" d="M 30.019531 10.769531 C 28.953125 10.769531 27.917969 10.90625 26.925781 11.144531 L 26.925781 13.257812 C 27.914062 12.960938 28.949219 12.808594 30.019531 12.808594 C 36.1875 12.808594 41.183594 17.882812 41.183594 24.136719 C 41.183594 26.949219 40.167969 29.527344 38.492188 31.503906 L 38.171875 32.664062 L 37.472656 35.222656 C 40.921875 32.808594 43.191406 28.761719 43.191406 24.171875 C 43.191406 16.769531 37.292969 10.769531 30.019531 10.769531 Z M 30.019531 10.769531 "/>
</g>
<path style=" stroke:none;fill-rule:nonzero;fill:rgb(76.078431%,56.078431%,16.862745%);fill-opacity:1;" d="M 26.925781 31.117188 L 37.246094 31.117188 C 38.953125 29.300781 40.003906 26.847656 40.003906 24.136719 C 40.003906 18.542969 35.53125 14.007812 30.019531 14.007812 C 28.941406 14.007812 27.894531 14.183594 26.925781 14.503906 Z M 26.925781 31.117188 "/>
<g clip-path="url(#clip3)" clip-rule="nonzero">
<path style=" stroke:none;fill-rule:nonzero;fill:rgb(76.078431%,56.078431%,16.862745%);fill-opacity:1;" d="M 25.734375 8.933594 L 18.214844 8.933594 L 19.636719 11.929688 L 19.636719 35.019531 L 18.214844 38.007812 L 35.457031 38.007812 L 37.023438 32.332031 L 25.734375 32.332031 Z M 25.734375 8.933594 "/>
</g>
</g>
</svg>
